{
  "asset": {
    "version": "2.0",
    "generator": "THREE.GLTFExporter r181"
  },
  "scenes": [
    {
      "name": "AuxScene",
      "nodes": [
        0
      ]
    }
  ],
  "scene": 0,
  "nodes": [
    {
      "children": [
        1
      ]
    },
    {
      "children": [
        2
      ]
    },
    {
      "children": [
        3
      ]
    },
    {
      "children": [
        4
      ]
    },
    {
      "rotation": [
        0,
        0.3826834323650898,
        0,
        0.9238795325112867
      ],
      "scale": [
        0.4328629555882607,
        -0.4328629555882607,
        0.4328629555882607
      ],
      "children": [
        5,
        7,
        9
      ]
    },
    {
      "children": [
        6
      ]
    },
    {
      "translation": [
        -116.28000068664551,
        -42.8799991607666,
        -2.5
      ],
      "mesh": 0
    },
    {
      "children": [
        8
      ]
    },
    {
      "translation": [
        -116.28000068664551,
        -42.8799991607666,
        -2.5
      ],
      "mesh": 1
    },
    {
      "children": [
        10
      ]
    },
    {
      "translation": [
        -116.28000068664551,
        -42.8799991607666,
        -2.5
      ],
      "mesh": 2
    }
  ],
  "bufferViews": [
    {
      "buffer": 0,
      "byteOffset": 0,
      "byteLength": 9072,
      "target": 34962,
      "byteStride": 12
    },
    {
      "buffer": 0,
      "byteOffset": 9072,
      "byteLength": 6048,
      "target": 34962,
      "byteStride": 8
    },
    {
      "buffer": 0,
      "byteOffset": 15120,
      "byteLength": 9072,
      "target": 34962,
      "byteStride": 12
    },
    {
      "buffer": 0,
      "byteOffset": 24192,
      "byteLength": 9072,
      "target": 34962,
      "byteStride": 12
    },
    {
      "buffer": 0,
      "byteOffset": 33264,
      "byteLength": 6048,
      "target": 34962,
      "byteStride": 8
    },
    {
      "buffer": 0,
      "byteOffset": 39312,
      "byteLength": 9072,
      "target": 34962,
      "byteStride": 12
    },
    {
      "buffer": 0,
      "byteOffset": 48384,
      "byteLength": 9072,
      "target": 34962,
      "byteStride": 12
    },
    {
      "buffer": 0,
      "byteOffset": 57456,
      "byteLength": 6048,
      "target": 34962,
      "byteStride": 8
    },
    {
      "buffer": 0,
      "byteOffset": 63504,
      "byteLength": 9072,
      "target": 34962,
      "byteStride": 12
    }
  ],
  "buffers": [
    {
      "byteLength": 72576,
      "uri": "data:application/octet-stream;base64,"
    }
  ],
  "accessors": [
    {
      "bufferView": 0,
      "componentType": 5126,
      "count": 756,
      "max": [
        125.9800033569336,
        50.09000015258789,
        5
      ],
      "min": [
        112.5199966430664,
        35.66999816894531,
        0
      ],
      "type": "VEC3"
    },
    {
      "bufferView": 1,
      "componentType": 5126,
      "count": 756,
      "max": [
        125.9800033569336,
        50.09000015258789
      ],
      "min": [
        37.781761169433594,
        -4
      ],
      "type": "VEC2"
    },
    {
      "bufferView": 2,
      "componentType": 5126,
      "count": 756,
      "max": [
        0.9989500641822815,
        0.9986178874969482,
        1
      ],
      "min": [
        -0.9989500641822815,
        -0.9986175894737244,
        -1
      ],
      "type": "VEC3"
    },
    {
      "bufferView": 3,
      "componentType": 5126,
      "count": 756,
      "max": [
        194.25,
        50.09000015258789,
        5
      ],
      "min": [
        180.7899932861328,
        35.66999816894531,
        0
      ],
      "type": "VEC3"
    },
    {
      "bufferView": 4,
      "componentType": 5126,
      "count": 756,
      "max": [
        194.25,
        50.09000015258789
      ],
      "min": [
        37.781761169433594,
        -4
      ],
      "type": "VEC2"
    },
    {
      "bufferView": 5,
      "componentType": 5126,
      "count": 756,
      "max": [
        0.9989500641822815,
        0.9986178874969482,
        1
      ],
      "min": [
        -0.9989500641822815,
        -0.9986175894737244,
        -1
      ],
      "type": "VEC3"
    },
    {
      "bufferView": 6,
      "componentType": 5126,
      "count": 756,
      "max": [
        51.77000045776367,
        50.09000015258789,
        5
      ],
      "min": [
        38.310001373291016,
        35.66999816894531,
        0
      ],
      "type": "VEC3"
    },
    {
      "bufferView": 7,
      "componentType": 5126,
      "count": 756,
      "max": [
        51.77000045776367,
        50.09000015258789
      ],
      "min": [
        37.781761169433594,
        -4
      ],
      "type": "VEC2"
    },
    {
      "bufferView": 8,
      "componentType": 5126,
      "count": 756,
      "max": [
        0.9989503026008606,
        0.998617947101593,
        1
      ],
      "min": [
        -0.9989503026008606,
        -0.9986176490783691,
        -1
      ],
      "type": "VEC3"
    }
  ],
  "materials": [
    {
      "pbrMetallicRoughness": {
        "baseColorFactor": [
          0.5775804404214573,
          0.2917706498067337,
          0.031896033067374104,
          1
        ],
        "metallicFactor": 1,
        "roughnessFactor": 0.4
      },
      "doubleSided": true,
      "extras": {
        "originalProperties": {
          "color": 13144882,
          "roughness": 0.4,
          "metalness": 1,
          "clearcoat": 0,
          "clearcoatRoughness": 0.01,
          "transmission": 0,
          "ior": 1.4,
          "opacity": 1,
          "sheen": 0,
          "sheenRoughness": 0
        },
        "isHole": false
      },
      "extensions": {
        "KHR_materials_ior": {
          "ior": 1.4
        }
      }
    },
    {
      "pbrMetallicRoughness": {
        "metallicFactor": 1,
        "roughnessFactor": 0.4
      },
      "doubleSided": true,
      "extras": {
        "originalProperties": {
          "color": 16777215,
          "roughness": 0.4,
          "metalness": 1,
          "clearcoat": 0,
          "clearcoatRoughness": 0.01,
          "transmission": 0,
          "ior": 1.4,
          "opacity": 1,
          "sheen": 0,
          "sheenRoughness": 0
        },
        "isHole": false
      },
      "extensions": {
        "KHR_materials_ior": {
          "ior": 1.4
        }
      }
    },
    {
      "pbrMetallicRoughness": {
        "baseColorFactor": [
          0.5775804404214573,
          0.2917706498067337,
          0.031896033067374104,
          1
        ],
        "metallicFactor": 1,
        "roughnessFactor": 0.4
      },
      "doubleSided": true,
      "extras": {
        "originalProperties": {
          "color": 13144882,
          "roughness": 0.4,
          "metalness": 1,
          "clearcoat": 0,
          "clearcoatRoughness": 0.01,
          "transmission": 0,
          "ior": 1.4,
          "opacity": 1,
          "sheen": 0,
          "sheenRoughness": 0
        },
        "isHole": false
      },
      "extensions": {
        "KHR_materials_ior": {
          "ior": 1.4
        }
      }
    }
  ],
  "meshes": [
    {
      "primitives": [
        {
          "mode": 4,
          "attributes": {
            "POSITION": 0,
            "TEXCOORD_0": 1,
            "NORMAL": 2
          },
          "material": 0
        }
      ]
    },
    {
      "primitives": [
        {
          "mode": 4,
          "attributes": {
            "POSITION": 3,
            "TEXCOORD_0": 4,
            "NORMAL": 5
          },
          "material": 1
        }
      ]
    },
    {
      "primitives": [
        {
          "mode": 4,
          "attributes": {
            "POSITION": 6,
            "TEXCOORD_0": 7,
            "NORMAL": 8
          },
          "material": 2
        }
      ]
    }
  ],
  "extensionsUsed": [
    "KHR_materials_ior"
  ]
}