{
  "asset": {
    "version": "2.0",
    "generator": "THREE.GLTFExporter r181"
  },
  "scenes": [
    {
      "name": "AuxScene",
      "nodes": [
        0
      ]
    }
  ],
  "scene": 0,
  "nodes": [
    {
      "children": [
        1
      ]
    },
    {
      "children": [
        2
      ]
    },
    {
      "children": [
        3
      ]
    },
    {
      "children": [
        4
      ]
    },
    {
      "rotation": [
        0,
        0.3826834323650898,
        0,
        0.9238795325112867
      ],
      "scale": [
        0.18031988748039018,
        -0.18031988748039018,
        0.18031988748039018
      ],
      "children": [
        5,
        7,
        9
      ]
    },
    {
      "children": [
        6
      ]
    },
    {
      "translation": [
        -276.6049919128418,
        -91.20000076293945,
        -3.75
      ],
      "mesh": 0
    },
    {
      "children": [
        8
      ]
    },
    {
      "translation": [
        -276.6049919128418,
        -91.20000076293945,
        -3.75
      ],
      "mesh": 1
    },
    {
      "children": [
        10
      ]
    },
    {
      "translation": [
        -276.6049919128418,
        -91.20000076293945,
        -3.75
      ],
      "mesh": 2
    }
  ],
  "bufferViews": [
    {
      "buffer": 0,
      "byteOffset": 0,
      "byteLength": 9072,
      "target": 34962,
      "byteStride": 12
    },
    {
      "buffer": 0,
      "byteOffset": 9072,
      "byteLength": 6048,
      "target": 34962,
      "byteStride": 8
    },
    {
      "buffer": 0,
      "byteOffset": 15120,
      "byteLength": 9072,
      "target": 34962,
      "byteStride": 12
    },
    {
      "buffer": 0,
      "byteOffset": 24192,
      "byteLength": 9072,
      "target": 34962,
      "byteStride": 12
    },
    {
      "buffer": 0,
      "byteOffset": 33264,
      "byteLength": 6048,
      "target": 34962,
      "byteStride": 8
    },
    {
      "buffer": 0,
      "byteOffset": 39312,
      "byteLength": 9072,
      "target": 34962,
      "byteStride": 12
    },
    {
      "buffer": 0,
      "byteOffset": 48384,
      "byteLength": 9072,
      "target": 34962,
      "byteStride": 12
    },
    {
      "buffer": 0,
      "byteOffset": 57456,
      "byteLength": 6048,
      "target": 34962,
      "byteStride": 8
    },
    {
      "buffer": 0,
      "byteOffset": 63504,
      "byteLength": 9072,
      "target": 34962,
      "byteStride": 12
    }
  ],
  "buffers": [
    {
      "byteLength": 72576,
      "uri": "data:application/octet-stream;base64,"
    }
  ],
  "accessors": [
    {
      "bufferView": 0,
      "componentType": 5126,
      "count": 756,
      "max": [
        120.1500015258789,
        107.61000061035156,
        7.5
      ],
      "min": [
        87.8499984741211,
        75.30999755859375,
        0
      ],
      "type": "VEC3"
    },
    {
      "bufferView": 1,
      "componentType": 5126,
      "count": 756,
      "max": [
        120.1500015258789,
        107.61000061035156
      ],
      "min": [
        80.04022216796875,
        -6.5
      ],
      "type": "VEC2"
    },
    {
      "bufferView": 2,
      "componentType": 5126,
      "count": 756,
      "max": [
        0.9987954497337341,
        0.9987954497337341,
        1
      ],
      "min": [
        -0.9987954497337341,
        -0.9987954497337341,
        -1
      ],
      "type": "VEC3"
    },
    {
      "bufferView": 3,
      "componentType": 5126,
      "count": 756,
      "max": [
        465.3599853515625,
        106.8499984741211,
        7.5
      ],
      "min": [
        433.05999755859375,
        74.55000305175781,
        0
      ],
      "type": "VEC3"
    },
    {
      "bufferView": 4,
      "componentType": 5126,
      "count": 756,
      "max": [
        465.3599853515625,
        106.8499984741211
      ],
      "min": [
        79.28022766113281,
        -6.5
      ],
      "type": "VEC2"
    },
    {
      "bufferView": 5,
      "componentType": 5126,
      "count": 756,
      "max": [
        0.9987956881523132,
        0.9987954497337341,
        1
      ],
      "min": [
        -0.9987956881523132,
        -0.9987954497337341,
        -1
      ],
      "type": "VEC3"
    },
    {
      "bufferView": 6,
      "componentType": 5126,
      "count": 756,
      "max": [
        293.42999267578125,
        107.8499984741211,
        7.5
      ],
      "min": [
        261.1300048828125,
        75.55000305175781,
        0
      ],
      "type": "VEC3"
    },
    {
      "bufferView": 7,
      "componentType": 5126,
      "count": 756,
      "max": [
        293.42999267578125,
        107.8499984741211
      ],
      "min": [
        80.28022766113281,
        -6.5
      ],
      "type": "VEC2"
    },
    {
      "bufferView": 8,
      "componentType": 5126,
      "count": 756,
      "max": [
        0.9987956881523132,
        0.9987954497337341,
        1
      ],
      "min": [
        -0.9987956881523132,
        -0.9987954497337341,
        -1
      ],
      "type": "VEC3"
    }
  ],
  "materials": [
    {
      "pbrMetallicRoughness": {
        "metallicFactor": 1,
        "roughnessFactor": 0.4
      },
      "doubleSided": true,
      "extras": {
        "originalProperties": {
          "color": 16777215,
          "roughness": 0.4,
          "metalness": 1,
          "clearcoat": 0,
          "clearcoatRoughness": 0.01,
          "transmission": 0,
          "ior": 1.4,
          "opacity": 1,
          "sheen": 0,
          "sheenRoughness": 0
        },
        "isHole": false
      },
      "extensions": {
        "KHR_materials_ior": {
          "ior": 1.4
        }
      }
    },
    {
      "pbrMetallicRoughness": {
        "baseColorFactor": [
          0.0036765073221525194,
          0.02121901037134225,
          0.06480326668529614,
          1
        ],
        "metallicFactor": 1,
        "roughnessFactor": 0.4
      },
      "doubleSided": true,
      "extras": {
        "originalProperties": {
          "color": 796744,
          "roughness": 0.4,
          "metalness": 1,
          "clearcoat": 0,
          "clearcoatRoughness": 0.01,
          "transmission": 0,
          "ior": 1.4,
          "opacity": 1,
          "sheen": 0,
          "sheenRoughness": 0
        },
        "isHole": false
      },
      "extensions": {
        "KHR_materials_ior": {
          "ior": 1.4
        }
      }
    },
    {
      "pbrMetallicRoughness": {
        "baseColorFactor": [
          0.0036765073221525194,
          0.02121901037134225,
          0.06480326668529614,
          1
        ],
        "metallicFactor": 1,
        "roughnessFactor": 0.4
      },
      "doubleSided": true,
      "extras": {
        "originalProperties": {
          "color": 796744,
          "roughness": 0.4,
          "metalness": 1,
          "clearcoat": 0,
          "clearcoatRoughness": 0.01,
          "transmission": 0,
          "ior": 1.4,
          "opacity": 1,
          "sheen": 0,
          "sheenRoughness": 0
        },
        "isHole": false
      },
      "extensions": {
        "KHR_materials_ior": {
          "ior": 1.4
        }
      }
    }
  ],
  "meshes": [
    {
      "primitives": [
        {
          "mode": 4,
          "attributes": {
            "POSITION": 0,
            "TEXCOORD_0": 1,
            "NORMAL": 2
          },
          "material": 0
        }
      ]
    },
    {
      "primitives": [
        {
          "mode": 4,
          "attributes": {
            "POSITION": 3,
            "TEXCOORD_0": 4,
            "NORMAL": 5
          },
          "material": 1
        }
      ]
    },
    {
      "primitives": [
        {
          "mode": 4,
          "attributes": {
            "POSITION": 6,
            "TEXCOORD_0": 7,
            "NORMAL": 8
          },
          "material": 2
        }
      ]
    }
  ],
  "extensionsUsed": [
    "KHR_materials_ior"
  ]
}