{
  "asset": {
    "version": "2.0",
    "generator": "THREE.GLTFExporter r181"
  },
  "scenes": [
    {
      "name": "AuxScene",
      "nodes": [
        0
      ]
    }
  ],
  "scene": 0,
  "nodes": [
    {
      "children": [
        1
      ]
    },
    {
      "children": [
        2
      ]
    },
    {
      "children": [
        3
      ]
    },
    {
      "children": [
        4
      ]
    },
    {
      "rotation": [
        0,
        0.3826834323650898,
        0,
        0.9238795325112867
      ],
      "scale": [
        0.7029382820188388,
        -0.7029382820188388,
        0.7029382820188388
      ],
      "children": [
        5
      ]
    },
    {
      "children": [
        6
      ]
    },
    {
      "translation": [
        -77.72500324249268,
        -58.81500053405762,
        -3.75
      ],
      "mesh": 0
    }
  ],
  "bufferViews": [
    {
      "buffer": 0,
      "byteOffset": 0,
      "byteLength": 126288,
      "target": 34962,
      "byteStride": 12
    },
    {
      "buffer": 0,
      "byteOffset": 126288,
      "byteLength": 84192,
      "target": 34962,
      "byteStride": 8
    },
    {
      "buffer": 0,
      "byteOffset": 210480,
      "byteLength": 126288,
      "target": 34962,
      "byteStride": 12
    }
  ],
  "buffers": [
    {
      "byteLength": 336768,
      "uri": "data:application/octet-stream;base64,"
    }
  ],
  "accessors": [
    {
      "bufferView": 0,
      "componentType": 5126,
      "count": 10524,
      "max": [
        144.9600067138672,
        126.86000061035156,
        7.5
      ],
      "min": [
        10.489999771118164,
        -9.229999542236328,
        0
      ],
      "type": "VEC3"
    },
    {
      "bufferView": 1,
      "componentType": 5126,
      "count": 10524,
      "max": [
        144.9600067138672,
        126.86000061035156
      ],
      "min": [
        -9.229999542236328,
        -9.229999542236328
      ],
      "type": "VEC2"
    },
    {
      "bufferView": 2,
      "componentType": 5126,
      "count": 10524,
      "max": [
        1,
        0.9999992251396179,
        1
      ],
      "min": [
        -1,
        -1,
        -1
      ],
      "type": "VEC3"
    }
  ],
  "materials": [
    {
      "pbrMetallicRoughness": {
        "baseColorFactor": [
          0.002428215868235294,
          0.0015176349176470587,
          0.0015176349176470587,
          1
        ],
        "metallicFactor": 1,
        "roughnessFactor": 0.4
      },
      "doubleSided": true,
      "extras": {
        "originalProperties": {
          "color": 525573,
          "roughness": 0.4,
          "metalness": 1,
          "clearcoat": 0,
          "clearcoatRoughness": 0.01,
          "transmission": 0,
          "ior": 1.4,
          "opacity": 1,
          "sheen": 0,
          "sheenRoughness": 0
        },
        "isHole": false
      },
      "extensions": {
        "KHR_materials_ior": {
          "ior": 1.4
        }
      }
    }
  ],
  "meshes": [
    {
      "primitives": [
        {
          "mode": 4,
          "attributes": {
            "POSITION": 0,
            "TEXCOORD_0": 1,
            "NORMAL": 2
          },
          "material": 0
        }
      ]
    }
  ],
  "extensionsUsed": [
    "KHR_materials_ior"
  ]
}