{
  "asset": {
    "version": "2.0",
    "generator": "THREE.GLTFExporter r181"
  },
  "scenes": [
    {
      "name": "AuxScene",
      "nodes": [
        0
      ]
    }
  ],
  "scene": 0,
  "nodes": [
    {
      "children": [
        1
      ]
    },
    {
      "children": [
        2
      ]
    },
    {
      "children": [
        3
      ]
    },
    {
      "children": [
        4
      ]
    },
    {
      "rotation": [
        0,
        0.3826834323650898,
        0,
        0.9238795325112867
      ],
      "scale": [
        0.7325470661490001,
        -0.7325470661490001,
        0.7325470661490001
      ],
      "children": [
        5,
        7
      ]
    },
    {
      "children": [
        6
      ]
    },
    {
      "translation": [
        -41.88999938964844,
        -58.4900016784668,
        -1.25
      ],
      "mesh": 0
    },
    {
      "children": [
        8
      ]
    },
    {
      "translation": [
        -41.88999938964844,
        -58.4900016784668,
        -1.25
      ],
      "mesh": 1
    }
  ],
  "bufferViews": [
    {
      "buffer": 0,
      "byteOffset": 0,
      "byteLength": 144,
      "target": 34962,
      "byteStride": 12
    },
    {
      "buffer": 0,
      "byteOffset": 144,
      "byteLength": 96,
      "target": 34962,
      "byteStride": 8
    },
    {
      "buffer": 0,
      "byteOffset": 240,
      "byteLength": 144,
      "target": 34962,
      "byteStride": 12
    },
    {
      "buffer": 0,
      "byteOffset": 384,
      "byteLength": 126000,
      "target": 34962,
      "byteStride": 12
    },
    {
      "buffer": 0,
      "byteOffset": 126384,
      "byteLength": 84000,
      "target": 34962,
      "byteStride": 8
    },
    {
      "buffer": 0,
      "byteOffset": 210384,
      "byteLength": 126000,
      "target": 34962,
      "byteStride": 12
    }
  ],
  "buffers": [
    {
      "byteLength": 336384,
      "uri": "data:application/octet-stream;base64,"
    }
  ],
  "accessors": [
    {
      "bufferView": 0,
      "componentType": 5126,
      "count": 12,
      "max": [
        41.79999923706055,
        88.55000305175781,
        2.5
      ],
      "min": [
        41.63999938964844,
        0,
        0
      ],
      "type": "VEC3"
    },
    {
      "bufferView": 1,
      "componentType": 5126,
      "count": 12,
      "max": [
        88.55000305175781,
        1
      ],
      "min": [
        0,
        -1.5
      ],
      "type": "VEC2"
    },
    {
      "bufferView": 2,
      "componentType": 5126,
      "count": 12,
      "max": [
        0.9999983906745911,
        0.0018068840727210045,
        0
      ],
      "min": [
        -0.9999983906745911,
        -0.0018068840727210045,
        0
      ],
      "type": "VEC3"
    },
    {
      "bufferView": 3,
      "componentType": 5126,
      "count": 10500,
      "max": [
        61.16999816894531,
        116.9800033569336,
        2.5
      ],
      "min": [
        22.610000610351562,
        80.66000366210938,
        0
      ],
      "type": "VEC3"
    },
    {
      "bufferView": 4,
      "componentType": 5126,
      "count": 10500,
      "max": [
        116.9800033569336,
        116.9800033569336
      ],
      "min": [
        22.610000610351562,
        -1.5
      ],
      "type": "VEC2"
    },
    {
      "bufferView": 5,
      "componentType": 5126,
      "count": 10500,
      "max": [
        1,
        1,
        1
      ],
      "min": [
        -1,
        -0.9999867081642151,
        -1
      ],
      "type": "VEC3"
    }
  ],
  "materials": [
    {
      "pbrMetallicRoughness": {
        "baseColorFactor": [
          0.004391442035325718,
          0.004391442035325718,
          0.004391442035325718,
          1
        ],
        "metallicFactor": 1,
        "roughnessFactor": 0.29
      },
      "doubleSided": true,
      "extras": {
        "originalProperties": {
          "color": 921102,
          "roughness": 0.29,
          "metalness": 1,
          "clearcoat": 0,
          "clearcoatRoughness": 0.01,
          "transmission": 0,
          "ior": 1.4,
          "opacity": 1,
          "sheen": 0,
          "sheenRoughness": 0
        },
        "isHole": false
      },
      "extensions": {
        "KHR_materials_ior": {
          "ior": 1.4
        },
        "KHR_materials_anisotropy": {
          "anisotropyStrength": 0.2,
          "anisotropyRotation": 0
        }
      }
    },
    {
      "pbrMetallicRoughness": {
        "baseColorFactor": [
          0.002428215868235294,
          0.0015176349176470587,
          0.0015176349176470587,
          1
        ],
        "metallicFactor": 1,
        "roughnessFactor": 0.29
      },
      "doubleSided": true,
      "extras": {
        "originalProperties": {
          "color": 525573,
          "roughness": 0.29,
          "metalness": 1,
          "clearcoat": 0,
          "clearcoatRoughness": 0.01,
          "transmission": 0,
          "ior": 1.4,
          "opacity": 1,
          "sheen": 0,
          "sheenRoughness": 0
        },
        "isHole": false
      },
      "extensions": {
        "KHR_materials_ior": {
          "ior": 1.4
        },
        "KHR_materials_anisotropy": {
          "anisotropyStrength": 0.2,
          "anisotropyRotation": 0
        }
      }
    }
  ],
  "meshes": [
    {
      "primitives": [
        {
          "mode": 4,
          "attributes": {
            "POSITION": 0,
            "TEXCOORD_0": 1,
            "NORMAL": 2
          },
          "material": 0
        }
      ]
    },
    {
      "primitives": [
        {
          "mode": 4,
          "attributes": {
            "POSITION": 3,
            "TEXCOORD_0": 4,
            "NORMAL": 5
          },
          "material": 1
        }
      ]
    }
  ],
  "extensionsUsed": [
    "KHR_materials_ior",
    "KHR_materials_anisotropy"
  ]
}